<svg version="1.2" xmlns="http://www.w3.org/2000/svg" viewBox="0 0 256 256" width="256" height="256">
	<title>New Project</title>
	<style>
		.s0 { fill: #9005fc;stroke: #000000;stroke-miterlimit:10 } 
		.s1 { fill: #ffffff } 
	</style>
	<g id="Layer 1">
		<path id="Shape 1" fill-rule="evenodd" class="s0" d="m256 0v256h-256v-256z"/>
		<path id="Te" class="s1" aria-label="Te"  d="m109.9 16v13.2h-40v98.8h-14.9v-98.8h-40v-13.2zm67.7 63.8v7.7h-61.9q0 7.7 2.3 13.5 2.4 5.7 6.4 9.4 3.9 3.6 9.3 5.4 5.4 1.8 11.9 1.8 8.5 0 17.2-3.4 8.7-3.4 12.4-6.7h0.7v15.4q-7.1 3-14.5 5-7.5 2.1-15.7 2.1-20.9 0-32.6-11.3-11.8-11.4-11.8-32.2 0-20.6 11.2-32.7 11.3-12.2 29.7-12.2 17 0 26.2 10 9.2 9.9 9.2 28.2zm-61.9-3.2h48.1q0-11.1-5.6-17.2-5.5-6.1-16.8-6.1-11.3 0-18.1 6.7-6.7 6.7-7.6 16.6z"/>
	</g>
</svg>